<svg xmlns="http://www.w3.org/2000/svg" xmlns:xlink="http://www.w3.org/1999/xlink" width="223" height="57" viewBox="0 0 223 57">
    <defs>
        <path id="qe9aw98bia" d="M0 0.001L55.331 0.001 55.331 55.617 0 55.617z"/>
    </defs>
    <g fill="none" fill-rule="evenodd">
        <g>
            <g transform="translate(-238 -70) translate(238.743 70.333)">
                <path fill="#FFF" d="M85.361 34.72l-.99-2.343h-6.975l-.991 2.343H73.14l6.1-13.67h3.303l6.1 13.67H85.36zm-6.819-5.038h4.681l-2.33-5.547-2.35 5.547zM89.579 34.72L89.579 33.138 96.223 23.667 89.91 23.667 89.91 21.05 100.304 21.05 100.304 22.378 93.776 31.869 100.459 31.869 100.459 34.72zM103.104 21.051L106.115 21.051 106.115 34.721 103.104 34.721zM119.271 34.72L112.512 25.971 112.627 30.462 112.627 34.72 109.559 34.72 109.559 21.05 112.161 21.05 119.02 29.935 118.825 25.639 118.825 21.05 121.875 21.05 121.875 34.72zM128.27 34.72L128.27 23.764 124.133 23.764 124.133 21.05 135.42 21.05 135.42 23.764 131.282 23.764 131.282 34.72zM137.677 34.72L137.677 21.05 147.76 21.05 147.76 23.843 140.649 23.843 140.649 26.479 147.352 26.479 147.352 29.154 140.649 29.154 140.649 31.908 148.031 31.908 148.031 34.72zM150.832 34.72L150.832 21.05 153.863 21.05 153.863 31.927 160.663 31.927 160.663 34.72zM162.9 34.72L162.9 21.05 172.983 21.05 172.983 23.843 165.873 23.843 165.873 26.479 172.575 26.479 172.575 29.154 165.873 29.154 165.873 31.908 173.255 31.908 173.255 34.72zM187.635 33.06c-1.4 1.386-3.205 2.011-5.227 2.011-5.187 0-7.246-3.358-7.265-7.088-.019-3.535 2.273-7.246 7.265-7.246 1.866 0 3.595.724 4.994 2.11l-1.904 1.894c-.816-.8-2.001-1.133-3.09-1.133-3.088 0-4.292 2.402-4.273 4.394.02 1.992 1.088 4.258 4.273 4.258 1.089 0 2.526-.489 3.343-1.31l1.884 2.11zM196.05 23.452c-2.583 0-4.37 1.953-4.37 4.433 0 2.558 1.787 4.414 4.37 4.414 2.643 0 4.372-1.875 4.372-4.414 0-2.5-1.73-4.433-4.371-4.433m0 11.6c-4.353 0-7.343-2.714-7.343-7.167 0-4.452 2.99-7.167 7.343-7.167 4.352 0 7.343 2.715 7.343 7.167 0 4.453-2.991 7.166-7.343 7.166M217.89 25.229L213.694 30.541 213.15 30.541 209.089 25.19 209.089 34.74 206.059 34.74 206.059 21.07 209.536 21.07 213.5 26.323 217.482 21.07 220.921 21.07 220.921 34.74 217.89 34.74z"/>
                <mask id="2quyuuy52b" fill="#fff">
                    <use xlink:href="#qe9aw98bia"/>
                </mask>
                <path fill="#FFF" d="M55.331 0v55.617H0V0h55.331zM44.303 11.09H11.028v33.44h33.275V11.09z" mask="url(#2quyuuy52b)"/>
            </g>
        </g>
    </g>
</svg>
